<mxfile host="app.diagrams.net" agent="Mozilla/5.0 (Windows NT 10.0; Win64; x64) AppleWebKit/537.36 (KHTML, like Gecko) Chrome/127.0.0.0 Safari/537.36" version="24.7.7">
  <diagram name="Página-1" id="Gf3t1IFRN6RFs4hTjltR">
    <mxGraphModel dx="880" dy="468" grid="1" gridSize="10" guides="1" tooltips="1" connect="1" arrows="1" fold="1" page="1" pageScale="1" pageWidth="827" pageHeight="1169" math="0" shadow="0">
      <root>
        <mxCell id="0" />
        <mxCell id="1" parent="0" />
        <mxCell id="3MZbYM7oq79_7RkiPS2B-1" value="substantivo" style="whiteSpace=wrap;html=1;align=center;" vertex="1" parent="1">
          <mxGeometry x="40" y="10" width="100" height="40" as="geometry" />
        </mxCell>
        <mxCell id="3MZbYM7oq79_7RkiPS2B-3" value="verbo" style="shape=rhombus;perimeter=rhombusPerimeter;whiteSpace=wrap;html=1;align=center;" vertex="1" parent="1">
          <mxGeometry x="30" y="50" width="120" height="60" as="geometry" />
        </mxCell>
        <mxCell id="3MZbYM7oq79_7RkiPS2B-4" value="Pedidos de compras" style="whiteSpace=wrap;html=1;align=center;" vertex="1" parent="1">
          <mxGeometry x="364" y="160" width="100" height="40" as="geometry" />
        </mxCell>
        <mxCell id="3MZbYM7oq79_7RkiPS2B-5" value="Compras" style="whiteSpace=wrap;html=1;align=center;" vertex="1" parent="1">
          <mxGeometry x="540" y="70" width="100" height="40" as="geometry" />
        </mxCell>
        <mxCell id="3MZbYM7oq79_7RkiPS2B-6" value="Ficha cadastral" style="whiteSpace=wrap;html=1;align=center;" vertex="1" parent="1">
          <mxGeometry x="95" y="160" width="100" height="40" as="geometry" />
        </mxCell>
        <mxCell id="3MZbYM7oq79_7RkiPS2B-7" value="Medicamentos" style="whiteSpace=wrap;html=1;align=center;" vertex="1" parent="1">
          <mxGeometry x="580" y="200" width="100" height="40" as="geometry" />
        </mxCell>
        <mxCell id="3MZbYM7oq79_7RkiPS2B-12" style="edgeStyle=orthogonalEdgeStyle;rounded=0;orthogonalLoop=1;jettySize=auto;html=1;entryX=0.5;entryY=0;entryDx=0;entryDy=0;" edge="1" parent="1" source="3MZbYM7oq79_7RkiPS2B-8" target="3MZbYM7oq79_7RkiPS2B-6">
          <mxGeometry relative="1" as="geometry" />
        </mxCell>
        <mxCell id="3MZbYM7oq79_7RkiPS2B-8" value="possui" style="shape=rhombus;perimeter=rhombusPerimeter;whiteSpace=wrap;html=1;align=center;" vertex="1" parent="1">
          <mxGeometry x="210" y="110" width="120" height="60" as="geometry" />
        </mxCell>
        <mxCell id="3MZbYM7oq79_7RkiPS2B-11" style="edgeStyle=orthogonalEdgeStyle;rounded=0;orthogonalLoop=1;jettySize=auto;html=1;entryX=0.5;entryY=0;entryDx=0;entryDy=0;" edge="1" parent="1" source="3MZbYM7oq79_7RkiPS2B-9" target="3MZbYM7oq79_7RkiPS2B-8">
          <mxGeometry relative="1" as="geometry" />
        </mxCell>
        <mxCell id="3MZbYM7oq79_7RkiPS2B-9" value="Cliente" style="whiteSpace=wrap;html=1;align=center;" vertex="1" parent="1">
          <mxGeometry x="220" y="40" width="100" height="40" as="geometry" />
        </mxCell>
        <mxCell id="3MZbYM7oq79_7RkiPS2B-45" style="edgeStyle=orthogonalEdgeStyle;rounded=0;orthogonalLoop=1;jettySize=auto;html=1;entryX=0;entryY=1;entryDx=0;entryDy=0;" edge="1" parent="1" source="3MZbYM7oq79_7RkiPS2B-19" target="3MZbYM7oq79_7RkiPS2B-6">
          <mxGeometry relative="1" as="geometry">
            <Array as="points">
              <mxPoint x="95" y="255" />
            </Array>
          </mxGeometry>
        </mxCell>
        <mxCell id="3MZbYM7oq79_7RkiPS2B-19" value="&lt;div&gt;&lt;span style=&quot;background-color: initial; white-space: pre;&quot;&gt;&lt;span style=&quot;white-space: pre;&quot;&gt;&#x9;&lt;/span&gt;&#x9;&lt;/span&gt;&lt;span style=&quot;background-color: initial;&quot;&gt;Nome&lt;/span&gt;&lt;br&gt;&lt;/div&gt;" style="ellipse;whiteSpace=wrap;html=1;align=center;" vertex="1" parent="1">
          <mxGeometry x="130" y="250" width="10" height="10" as="geometry" />
        </mxCell>
        <mxCell id="3MZbYM7oq79_7RkiPS2B-46" style="edgeStyle=orthogonalEdgeStyle;rounded=0;orthogonalLoop=1;jettySize=auto;html=1;entryX=0;entryY=1;entryDx=0;entryDy=0;" edge="1" parent="1" source="3MZbYM7oq79_7RkiPS2B-20" target="3MZbYM7oq79_7RkiPS2B-6">
          <mxGeometry relative="1" as="geometry">
            <Array as="points">
              <mxPoint x="95" y="275" />
            </Array>
          </mxGeometry>
        </mxCell>
        <mxCell id="3MZbYM7oq79_7RkiPS2B-20" value="&lt;div&gt;&lt;span style=&quot;background-color: initial; white-space: pre;&quot;&gt;&lt;span style=&quot;white-space: pre;&quot;&gt;&#x9;&lt;/span&gt;&#x9;CNPJ&lt;/span&gt;&lt;br&gt;&lt;/div&gt;" style="ellipse;whiteSpace=wrap;html=1;align=center;" vertex="1" parent="1">
          <mxGeometry x="130" y="270" width="10" height="10" as="geometry" />
        </mxCell>
        <mxCell id="3MZbYM7oq79_7RkiPS2B-48" style="edgeStyle=orthogonalEdgeStyle;rounded=0;orthogonalLoop=1;jettySize=auto;html=1;entryX=0;entryY=1;entryDx=0;entryDy=0;" edge="1" parent="1" source="3MZbYM7oq79_7RkiPS2B-21" target="3MZbYM7oq79_7RkiPS2B-6">
          <mxGeometry relative="1" as="geometry">
            <Array as="points">
              <mxPoint x="95" y="295" />
            </Array>
          </mxGeometry>
        </mxCell>
        <mxCell id="3MZbYM7oq79_7RkiPS2B-21" value="&lt;div&gt;&lt;span style=&quot;white-space: pre;&quot;&gt;&lt;span style=&quot;white-space: pre;&quot;&gt;&#x9;&lt;/span&gt;&#x9;&lt;/span&gt;&lt;span style=&quot;white-space: pre;&quot;&gt;&#x9;&lt;/span&gt;endereço&lt;br&gt;&lt;/div&gt;" style="ellipse;whiteSpace=wrap;html=1;align=center;" vertex="1" parent="1">
          <mxGeometry x="130" y="290" width="10" height="10" as="geometry" />
        </mxCell>
        <mxCell id="3MZbYM7oq79_7RkiPS2B-50" style="edgeStyle=orthogonalEdgeStyle;rounded=0;orthogonalLoop=1;jettySize=auto;html=1;entryX=0;entryY=1;entryDx=0;entryDy=0;" edge="1" parent="1" source="3MZbYM7oq79_7RkiPS2B-22" target="3MZbYM7oq79_7RkiPS2B-6">
          <mxGeometry relative="1" as="geometry">
            <Array as="points">
              <mxPoint x="95" y="355" />
            </Array>
          </mxGeometry>
        </mxCell>
        <mxCell id="3MZbYM7oq79_7RkiPS2B-22" value="&lt;div&gt;&lt;span style=&quot;background-color: initial; white-space: pre;&quot;&gt;&lt;span style=&quot;white-space: pre;&quot;&gt;&#x9;&lt;/span&gt;&#x9;CEP&lt;/span&gt;&lt;br&gt;&lt;/div&gt;" style="ellipse;whiteSpace=wrap;html=1;align=center;" vertex="1" parent="1">
          <mxGeometry x="130" y="350" width="10" height="10" as="geometry" />
        </mxCell>
        <mxCell id="3MZbYM7oq79_7RkiPS2B-49" style="edgeStyle=orthogonalEdgeStyle;rounded=0;orthogonalLoop=1;jettySize=auto;html=1;entryX=0;entryY=1;entryDx=0;entryDy=0;" edge="1" parent="1" source="3MZbYM7oq79_7RkiPS2B-23" target="3MZbYM7oq79_7RkiPS2B-6">
          <mxGeometry relative="1" as="geometry">
            <Array as="points">
              <mxPoint x="95" y="335" />
            </Array>
          </mxGeometry>
        </mxCell>
        <mxCell id="3MZbYM7oq79_7RkiPS2B-23" value="&lt;div&gt;&lt;span style=&quot;background-color: initial; white-space: pre;&quot;&gt;&lt;span style=&quot;white-space: pre;&quot;&gt;&#x9;&lt;/span&gt;&#x9;estado&lt;/span&gt;&lt;br&gt;&lt;/div&gt;" style="ellipse;whiteSpace=wrap;html=1;align=center;" vertex="1" parent="1">
          <mxGeometry x="130" y="330" width="10" height="10" as="geometry" />
        </mxCell>
        <mxCell id="3MZbYM7oq79_7RkiPS2B-47" style="edgeStyle=orthogonalEdgeStyle;rounded=0;orthogonalLoop=1;jettySize=auto;html=1;entryX=0;entryY=1;entryDx=0;entryDy=0;" edge="1" parent="1" source="3MZbYM7oq79_7RkiPS2B-31" target="3MZbYM7oq79_7RkiPS2B-6">
          <mxGeometry relative="1" as="geometry">
            <Array as="points">
              <mxPoint x="95" y="315" />
            </Array>
          </mxGeometry>
        </mxCell>
        <mxCell id="3MZbYM7oq79_7RkiPS2B-31" value="&lt;div&gt;&lt;span style=&quot;background-color: initial; white-space: pre;&quot;&gt;&lt;span style=&quot;white-space: pre;&quot;&gt;&#x9;&lt;/span&gt;&#x9;cidade&lt;/span&gt;&lt;br&gt;&lt;/div&gt;" style="ellipse;whiteSpace=wrap;html=1;align=center;" vertex="1" parent="1">
          <mxGeometry x="130" y="310" width="10" height="10" as="geometry" />
        </mxCell>
        <mxCell id="3MZbYM7oq79_7RkiPS2B-53" style="edgeStyle=orthogonalEdgeStyle;rounded=0;orthogonalLoop=1;jettySize=auto;html=1;entryX=0;entryY=1;entryDx=0;entryDy=0;" edge="1" parent="1" source="3MZbYM7oq79_7RkiPS2B-32" target="3MZbYM7oq79_7RkiPS2B-6">
          <mxGeometry relative="1" as="geometry">
            <Array as="points">
              <mxPoint x="95" y="395" />
            </Array>
          </mxGeometry>
        </mxCell>
        <mxCell id="3MZbYM7oq79_7RkiPS2B-32" value="&lt;blockquote style=&quot;margin: 0 0 0 40px; border: none; padding: 0px;&quot;&gt;&lt;div&gt;&lt;span style=&quot;background-color: initial; white-space: pre;&quot;&gt;&lt;span style=&quot;white-space: pre;&quot;&gt;&lt;span style=&quot;white-space: pre;&quot;&gt;&#x9;&lt;/span&gt;&lt;span style=&quot;white-space: pre;&quot;&gt;&#x9;&lt;/span&gt;&#x9;&lt;/span&gt;&#x9;Pessoa de contato&lt;/span&gt;&lt;/div&gt;&lt;/blockquote&gt;" style="ellipse;whiteSpace=wrap;html=1;align=center;" vertex="1" parent="1">
          <mxGeometry x="130" y="390" width="10" height="10" as="geometry" />
        </mxCell>
        <mxCell id="3MZbYM7oq79_7RkiPS2B-52" style="edgeStyle=orthogonalEdgeStyle;rounded=0;orthogonalLoop=1;jettySize=auto;html=1;entryX=0;entryY=1;entryDx=0;entryDy=0;" edge="1" parent="1" source="3MZbYM7oq79_7RkiPS2B-33" target="3MZbYM7oq79_7RkiPS2B-6">
          <mxGeometry relative="1" as="geometry">
            <Array as="points">
              <mxPoint x="95" y="375" />
            </Array>
          </mxGeometry>
        </mxCell>
        <mxCell id="3MZbYM7oq79_7RkiPS2B-33" value="&lt;div&gt;&lt;span style=&quot;background-color: initial; white-space: pre;&quot;&gt;&lt;span style=&quot;white-space: pre;&quot;&gt;&lt;span style=&quot;white-space: pre;&quot;&gt;&#x9;&lt;/span&gt;&#x9;&lt;/span&gt;&#x9;Telefone&lt;/span&gt;&lt;br&gt;&lt;/div&gt;" style="ellipse;whiteSpace=wrap;html=1;align=center;" vertex="1" parent="1">
          <mxGeometry x="130" y="370" width="10" height="10" as="geometry" />
        </mxCell>
      </root>
    </mxGraphModel>
  </diagram>
</mxfile>
